<svg xmlns="http://www.w3.org/2000/svg" width="1600" height="900" viewBox="0 0 1600 900"><defs><radialGradient id="a"><stop stop-color="#365077"/><stop offset="1" stop-color="#070b15"/></radialGradient><linearGradient id="b" x2="0" y2="1"><stop stop-color="#ffd78e"/><stop offset="1" stop-color="#c88b45"/></linearGradient></defs><rect width="1600" height="900" fill="url(#a)"/><path d="M0 120 L800 0 1600 120 M0 225 L800 90 1600 225" fill="none" stroke="#52657e" opacity=".35" stroke-width="12"/><g fill="#fff9d5"><circle cx="100" cy="88" r="21"/><circle cx="300" cy="78" r="23"/><circle cx="1320" cy="79" r="22"/><circle cx="1490" cy="102" r="22"/></g><path d="M0 340 Q800 260 1600 340 L1600 900 0 900Z" fill="#101a2a"/><path d="M0 407 Q800 350 1600 407" fill="none" stroke="#a8884d" stroke-width="15"/><circle cx="0" cy="420" r="4" fill="#f0b777" opacity=".7"/><circle cx="137" cy="491" r="5" fill="#40506c" opacity=".7"/><circle cx="274" cy="562" r="6" fill="#40506c" opacity=".7"/><circle cx="411" cy="633" r="7" fill="#8c9ab3" opacity=".7"/><circle cx="548" cy="704" r="4" fill="#f0b777" opacity=".7"/><circle cx="685" cy="775" r="5" fill="#40506c" opacity=".7"/><circle cx="822" cy="476" r="6" fill="#8c9ab3" opacity=".7"/><circle cx="959" cy="547" r="7" fill="#40506c" opacity=".7"/><circle cx="1096" cy="618" r="4" fill="#f0b777" opacity=".7"/><circle cx="1233" cy="689" r="5" fill="#8c9ab3" opacity=".7"/><circle cx="1370" cy="760" r="6" fill="#40506c" opacity=".7"/><circle cx="1507" cy="461" r="7" fill="#40506c" opacity=".7"/><circle cx="44" cy="532" r="4" fill="#f0b777" opacity=".7"/><circle cx="181" cy="603" r="5" fill="#40506c" opacity=".7"/><circle cx="318" cy="674" r="6" fill="#40506c" opacity=".7"/><circle cx="455" cy="745" r="7" fill="#8c9ab3" opacity=".7"/><circle cx="592" cy="446" r="4" fill="#f0b777" opacity=".7"/><circle cx="729" cy="517" r="5" fill="#40506c" opacity=".7"/><circle cx="866" cy="588" r="6" fill="#8c9ab3" opacity=".7"/><circle cx="1003" cy="659" r="7" fill="#40506c" opacity=".7"/><circle cx="1140" cy="730" r="4" fill="#f0b777" opacity=".7"/><circle cx="1277" cy="431" r="5" fill="#8c9ab3" opacity=".7"/><circle cx="1414" cy="502" r="6" fill="#40506c" opacity=".7"/><circle cx="1551" cy="573" r="7" fill="#40506c" opacity=".7"/><circle cx="88" cy="644" r="4" fill="#f0b777" opacity=".7"/><circle cx="225" cy="715" r="5" fill="#40506c" opacity=".7"/><circle cx="362" cy="786" r="6" fill="#40506c" opacity=".7"/><circle cx="499" cy="487" r="7" fill="#8c9ab3" opacity=".7"/><circle cx="636" cy="558" r="4" fill="#f0b777" opacity=".7"/><circle cx="773" cy="629" r="5" fill="#40506c" opacity=".7"/><circle cx="910" cy="700" r="6" fill="#8c9ab3" opacity=".7"/><circle cx="1047" cy="771" r="7" fill="#40506c" opacity=".7"/><circle cx="1184" cy="472" r="4" fill="#f0b777" opacity=".7"/><circle cx="1321" cy="543" r="5" fill="#8c9ab3" opacity=".7"/><circle cx="1458" cy="614" r="6" fill="#40506c" opacity=".7"/><circle cx="1595" cy="685" r="7" fill="#40506c" opacity=".7"/><circle cx="132" cy="756" r="4" fill="#f0b777" opacity=".7"/><circle cx="269" cy="457" r="5" fill="#40506c" opacity=".7"/><circle cx="406" cy="528" r="6" fill="#40506c" opacity=".7"/><circle cx="543" cy="599" r="7" fill="#8c9ab3" opacity=".7"/><circle cx="680" cy="670" r="4" fill="#f0b777" opacity=".7"/><circle cx="817" cy="741" r="5" fill="#40506c" opacity=".7"/><circle cx="954" cy="442" r="6" fill="#8c9ab3" opacity=".7"/><circle cx="1091" cy="513" r="7" fill="#40506c" opacity=".7"/><circle cx="1228" cy="584" r="4" fill="#f0b777" opacity=".7"/><circle cx="1365" cy="655" r="5" fill="#8c9ab3" opacity=".7"/><circle cx="1502" cy="726" r="6" fill="#40506c" opacity=".7"/><circle cx="39" cy="427" r="7" fill="#40506c" opacity=".7"/><circle cx="176" cy="498" r="4" fill="#f0b777" opacity=".7"/><circle cx="313" cy="569" r="5" fill="#40506c" opacity=".7"/><circle cx="450" cy="640" r="6" fill="#40506c" opacity=".7"/><circle cx="587" cy="711" r="7" fill="#8c9ab3" opacity=".7"/><circle cx="724" cy="782" r="4" fill="#f0b777" opacity=".7"/><circle cx="861" cy="483" r="5" fill="#40506c" opacity=".7"/><circle cx="998" cy="554" r="6" fill="#8c9ab3" opacity=".7"/><circle cx="1135" cy="625" r="7" fill="#40506c" opacity=".7"/><circle cx="1272" cy="696" r="4" fill="#f0b777" opacity=".7"/><circle cx="1409" cy="767" r="5" fill="#8c9ab3" opacity=".7"/><circle cx="1546" cy="468" r="6" fill="#40506c" opacity=".7"/><circle cx="83" cy="539" r="7" fill="#40506c" opacity=".7"/><circle cx="220" cy="610" r="4" fill="#f0b777" opacity=".7"/><circle cx="357" cy="681" r="5" fill="#40506c" opacity=".7"/><circle cx="494" cy="752" r="6" fill="#40506c" opacity=".7"/><circle cx="631" cy="453" r="7" fill="#8c9ab3" opacity=".7"/><circle cx="768" cy="524" r="4" fill="#f0b777" opacity=".7"/><circle cx="905" cy="595" r="5" fill="#40506c" opacity=".7"/><circle cx="1042" cy="666" r="6" fill="#8c9ab3" opacity=".7"/><circle cx="1179" cy="737" r="7" fill="#40506c" opacity=".7"/><circle cx="1316" cy="438" r="4" fill="#f0b777" opacity=".7"/><circle cx="1453" cy="509" r="5" fill="#8c9ab3" opacity=".7"/><circle cx="1590" cy="580" r="6" fill="#40506c" opacity=".7"/><circle cx="127" cy="651" r="7" fill="#40506c" opacity=".7"/><circle cx="264" cy="722" r="4" fill="#f0b777" opacity=".7"/><circle cx="401" cy="423" r="5" fill="#40506c" opacity=".7"/><circle cx="538" cy="494" r="6" fill="#40506c" opacity=".7"/><circle cx="675" cy="565" r="7" fill="#8c9ab3" opacity=".7"/><circle cx="812" cy="636" r="4" fill="#f0b777" opacity=".7"/><circle cx="949" cy="707" r="5" fill="#40506c" opacity=".7"/><circle cx="1086" cy="778" r="6" fill="#8c9ab3" opacity=".7"/><circle cx="1223" cy="479" r="7" fill="#40506c" opacity=".7"/><circle cx="1360" cy="550" r="4" fill="#f0b777" opacity=".7"/><circle cx="1497" cy="621" r="5" fill="#8c9ab3" opacity=".7"/><circle cx="34" cy="692" r="6" fill="#40506c" opacity=".7"/><circle cx="171" cy="763" r="7" fill="#40506c" opacity=".7"/><circle cx="308" cy="464" r="4" fill="#f0b777" opacity=".7"/><circle cx="445" cy="535" r="5" fill="#40506c" opacity=".7"/><circle cx="582" cy="606" r="6" fill="#40506c" opacity=".7"/><circle cx="719" cy="677" r="7" fill="#8c9ab3" opacity=".7"/><circle cx="856" cy="748" r="4" fill="#f0b777" opacity=".7"/><circle cx="993" cy="449" r="5" fill="#40506c" opacity=".7"/><circle cx="1130" cy="520" r="6" fill="#8c9ab3" opacity=".7"/><circle cx="1267" cy="591" r="7" fill="#40506c" opacity=".7"/><circle cx="1404" cy="662" r="4" fill="#f0b777" opacity=".7"/><circle cx="1541" cy="733" r="5" fill="#8c9ab3" opacity=".7"/><circle cx="78" cy="434" r="6" fill="#40506c" opacity=".7"/><circle cx="215" cy="505" r="7" fill="#40506c" opacity=".7"/><circle cx="352" cy="576" r="4" fill="#f0b777" opacity=".7"/><circle cx="489" cy="647" r="5" fill="#40506c" opacity=".7"/><circle cx="626" cy="718" r="6" fill="#40506c" opacity=".7"/><circle cx="763" cy="789" r="7" fill="#8c9ab3" opacity=".7"/><circle cx="900" cy="490" r="4" fill="#f0b777" opacity=".7"/><circle cx="1037" cy="561" r="5" fill="#40506c" opacity=".7"/><circle cx="1174" cy="632" r="6" fill="#8c9ab3" opacity=".7"/><circle cx="1311" cy="703" r="7" fill="#40506c" opacity=".7"/><circle cx="1448" cy="774" r="4" fill="#f0b777" opacity=".7"/><circle cx="1585" cy="475" r="5" fill="#8c9ab3" opacity=".7"/><circle cx="122" cy="546" r="6" fill="#40506c" opacity=".7"/><circle cx="259" cy="617" r="7" fill="#40506c" opacity=".7"/><circle cx="396" cy="688" r="4" fill="#f0b777" opacity=".7"/><circle cx="533" cy="759" r="5" fill="#40506c" opacity=".7"/><circle cx="670" cy="460" r="6" fill="#40506c" opacity=".7"/><circle cx="807" cy="531" r="7" fill="#8c9ab3" opacity=".7"/><circle cx="944" cy="602" r="4" fill="#f0b777" opacity=".7"/><circle cx="1081" cy="673" r="5" fill="#40506c" opacity=".7"/><circle cx="1218" cy="744" r="6" fill="#8c9ab3" opacity=".7"/><circle cx="1355" cy="445" r="7" fill="#40506c" opacity=".7"/><circle cx="1492" cy="516" r="4" fill="#f0b777" opacity=".7"/><circle cx="29" cy="587" r="5" fill="#8c9ab3" opacity=".7"/><circle cx="166" cy="658" r="6" fill="#40506c" opacity=".7"/><circle cx="303" cy="729" r="7" fill="#40506c" opacity=".7"/><circle cx="440" cy="430" r="4" fill="#f0b777" opacity=".7"/><circle cx="577" cy="501" r="5" fill="#40506c" opacity=".7"/><circle cx="714" cy="572" r="6" fill="#40506c" opacity=".7"/><circle cx="851" cy="643" r="7" fill="#8c9ab3" opacity=".7"/><circle cx="988" cy="714" r="4" fill="#f0b777" opacity=".7"/><g opacity=".9"><rect x="112" y="156" width="390" height="130" rx="12" fill="#080f1e" stroke="#bb914f" stroke-width="4"/><text x="307" y="207" text-anchor="middle" fill="url(#b)" font-family="Arial,sans-serif" font-weight="900" font-size="32">HIGH SCHOOL FINALS</text><text x="307" y="250" text-anchor="middle" fill="#fff" font-family="Arial,sans-serif" font-size="24">STEPBACK THREE</text></g><g transform="translate(0,12)"><path d="M480 730 L654 550 782 724" fill="none" stroke="#a66d50" stroke-width="76" stroke-linecap="round"/><path d="M648 535 L672 347" fill="none" stroke="#151a25" stroke-width="128" stroke-linecap="round"/><circle cx="674" cy="274" r="52" fill="#bb805c"/><path d="M635 247 Q680 187 717 249" fill="none" stroke="#171922" stroke-width="36"/><path d="M685 368 L836 280" fill="none" stroke="#b77951" stroke-width="34" stroke-linecap="round"/><path d="M633 401 L534 478" fill="none" stroke="#b77951" stroke-width="33" stroke-linecap="round"/><circle cx="874" cy="244" r="48" fill="#d87b36" stroke="#5a3421" stroke-width="5"/><path d="M852 224 Q873 249 895 267 M840 244 Q873 221 904 244" fill="none" stroke="#734022" stroke-width="4"/><text x="671" y="444" text-anchor="middle" fill="#efb34d" font-size="49" font-weight="900">7</text></g><g opacity=".85"><path d="M1044 732 L1105 568 1191 728" fill="none" stroke="#ad7757" stroke-width="66" stroke-linecap="round"/><path d="M1100 556 L1080 392" fill="none" stroke="#e2e8f2" stroke-width="118" stroke-linecap="round"/><circle cx="1076" cy="327" r="43" fill="#a46d4a"/><path d="M1053 416 L974 353" fill="none" stroke="#a46d4a" stroke-width="29" stroke-linecap="round"/><text x="1090" y="494" fill="#366dbc" font-size="43" text-anchor="middle" font-weight="900">12</text></g><path d="M0 820 Q800 785 1600 820 L1600 900 0 900" fill="#060a12" opacity=".55"/><text x="60" y="864" fill="#fbead0" font-size="32" font-family="Arial,sans-serif" font-weight="900">MYCAREER • CHAMPIONSHIP REPLAY</text></svg>